<?xml version="1.0" encoding="utf-8"?>
<!-- Generator: Adobe Illustrator 17.0.0, SVG Export Plug-In . SVG Version: 6.00 Build 0)  -->
<!DOCTYPE svg PUBLIC "-//W3C//DTD SVG 1.1//EN" "http://www.w3.org/Graphics/SVG/1.1/DTD/svg11.dtd">
<svg version="1.1" id="Layer_1" xmlns="http://www.w3.org/2000/svg" xmlns:xlink="http://www.w3.org/1999/xlink" x="0px" y="0px"
	 width="499.571px" height="218.728px" viewBox="0 0 499.571 218.728" enable-background="new 0 0 499.571 218.728"
	 xml:space="preserve">
<g>
	<g>
		<g>
			<g>
				<path fill="#FFFFFF" d="M77.106,159.034c-0.34-0.093-0.667-0.226-1.004-0.329c-0.635-0.201-1.271-0.411-1.908-0.637
					c-0.912-0.332-1.816-0.691-2.704-1.069c-0.496-0.211-0.99-0.401-1.475-0.622c-2.885-1.324-5.625-2.899-8.194-4.704
					c-0.159-0.116-0.308-0.236-0.464-0.347c-1.144-0.83-2.253-1.709-3.33-2.63c-0.251-0.213-0.498-0.437-0.749-0.66
					c-1.013-0.908-1.993-1.848-2.943-2.843c-0.194-0.203-0.395-0.391-0.59-0.604c-1.13-1.221-2.225-2.483-3.246-3.825
					c-1.024-1.337-1.946-2.735-2.829-4.146c-0.143-0.244-0.279-0.491-0.424-0.732c-0.705-1.17-1.356-2.375-1.96-3.596
					c-0.149-0.293-0.293-0.594-0.436-0.892c-0.607-1.29-1.158-2.583-1.654-3.922c-0.061-0.17-0.14-0.339-0.198-0.514
					c-1.069-2.974-1.86-6.03-2.368-9.171c-0.085-0.512-0.138-1.033-0.207-1.555c-0.129-0.964-0.235-1.938-0.308-2.925
					c-0.05-0.663-0.086-1.324-0.108-1.994c-0.012-0.353-0.05-0.703-0.058-1.059l-0.024-1.595l-21.526-2.901
					c-0.009,0.241-0.032,0.477-0.041,0.722l-0.008,0.367c-0.018,0.403-0.015,0.808-0.022,1.214c-0.04,2.007,0,4.005,0.119,5.99
					c0,0.028,0.005,0.054,0.012,0.093c0.112,1.889,0.316,3.765,0.573,5.616c0.035,0.221,0.058,0.445,0.091,0.668
					c0.245,1.673,0.573,3.336,0.939,4.976c0.114,0.519,0.234,1.038,0.357,1.56c0.371,1.514,0.788,3.025,1.255,4.5
					c0.185,0.586,0.383,1.159,0.584,1.738c0.431,1.262,0.891,2.506,1.39,3.75c0.235,0.573,0.478,1.159,0.734,1.74
					c0.568,1.301,1.176,2.586,1.822,3.861c0.238,0.46,0.463,0.915,0.709,1.378c0.794,1.485,1.643,2.95,2.541,4.39
					c0.22,0.334,0.446,0.679,0.67,1.023c0.996,1.532,2.037,3.054,3.159,4.529c1.124,1.47,2.312,2.879,3.53,4.249
					c0.271,0.306,0.537,0.614,0.811,0.918c1.142,1.244,2.325,2.447,3.548,3.614c0.379,0.355,0.763,0.699,1.144,1.049
					c1.054,0.956,2.126,1.881,3.228,2.776c0.497,0.401,1.009,0.797,1.517,1.182c1.044,0.807,2.117,1.578,3.201,2.318
					c0.519,0.355,1.024,0.707,1.546,1.049c1.295,0.833,2.623,1.624,3.972,2.385c0.491,0.262,0.974,0.519,1.465,0.787
					c1.473,0.771,2.96,1.522,4.489,2.197c0.239,0.106,0.481,0.201,0.726,0.303c1.66,0.722,3.348,1.383,5.076,1.982
					c0.081,0.031,0.165,0.064,0.242,0.087c1.833,0.627,3.699,1.172,5.594,1.665c0.498,0.123,0.988,0.262,1.485,0.383l0.106,0.018
					c0.249,0.062,0.502,0.103,0.752,0.164l2.919-21.523L77.106,159.034z"/>
			</g>
			<g>
				<path fill="#FFFFFF" d="M42.04,94.754c0.107-0.342,0.235-0.675,0.347-1.018c0.198-0.632,0.407-1.265,0.63-1.894
					c0.329-0.916,0.687-1.816,1.064-2.708c0.21-0.502,0.403-0.997,0.635-1.488c0.61-1.34,1.274-2.652,1.994-3.927
					c0.027-0.044,0.044-0.091,0.074-0.136c0.792-1.392,1.664-2.741,2.585-4.055c0.176-0.25,0.369-0.488,0.551-0.735
					c0.75-1.026,1.534-2.027,2.363-2.996c0.293-0.351,0.595-0.685,0.901-1.026c0.789-0.875,1.612-1.728,2.47-2.557
					c0.321-0.316,0.634-0.631,0.968-0.938c1.181-1.089,2.405-2.141,3.695-3.127c0.005-0.002,0.005-0.002,0.005-0.002v-0.005
					c1.294-0.978,2.636-1.88,4.001-2.728c0.379-0.238,0.77-0.456,1.157-0.685c1.023-0.603,2.068-1.175,3.127-1.702
					c0.405-0.202,0.813-0.408,1.225-0.6c1.154-0.541,2.327-1.029,3.514-1.477c0.284-0.111,0.568-0.234,0.853-0.336
					c1.511-0.541,3.046-1.024,4.602-1.42c0.045-0.016,0.091-0.021,0.134-0.031c1.43-0.357,2.878-0.648,4.336-0.887
					c0.527-0.085,1.055-0.145,1.586-0.213c0.968-0.125,1.938-0.235,2.916-0.305c0.658-0.052,1.315-0.086,1.973-0.107
					c0.357-0.016,0.722-0.054,1.085-0.061l1.591-0.023l2.902-21.518c-0.189-0.014-0.381-0.031-0.566-0.037l-1.06-0.028
					c-0.186-0.005-0.379-0.005-0.563-0.01c-4.016-0.073-7.974,0.171-11.86,0.713c-0.206,0.031-0.413,0.051-0.613,0.078
					c-1.677,0.252-3.336,0.581-4.978,0.947c-0.533,0.116-1.06,0.235-1.588,0.361c-1.504,0.367-2.993,0.785-4.465,1.246
					c-0.6,0.186-1.201,0.4-1.799,0.6c-1.214,0.42-2.415,0.866-3.61,1.346c-0.641,0.262-1.286,0.529-1.921,0.808
					c-1.262,0.555-2.504,1.14-3.728,1.762c-0.482,0.242-0.968,0.481-1.446,0.74c-1.47,0.789-2.921,1.628-4.344,2.523
					c-0.355,0.223-0.704,0.452-1.058,0.685c-1.525,0.992-3.035,2.026-4.499,3.145c-0.006,0-0.01,0.004-0.01,0.004
					c-0.008,0.005-0.01,0.01-0.018,0.014c-1.461,1.115-2.862,2.296-4.223,3.503c-0.315,0.275-0.631,0.555-0.939,0.834
					c-1.24,1.143-2.435,2.316-3.586,3.521c-0.377,0.392-0.733,0.793-1.103,1.194c-0.923,1.02-1.818,2.061-2.685,3.127
					c-0.437,0.544-0.866,1.094-1.29,1.644c-0.777,1.019-1.527,2.059-2.254,3.122c-0.355,0.52-0.717,1.042-1.058,1.574
					c-0.837,1.293-1.639,2.62-2.388,3.968c-0.267,0.48-0.518,0.96-0.774,1.439c-0.789,1.491-1.543,2.996-2.227,4.544
					c-0.085,0.19-0.166,0.389-0.244,0.581c-1.552,3.596-2.841,7.337-3.831,11.213c-0.052,0.213-0.108,0.419-0.161,0.629
					l-0.238,0.964c-0.044,0.186-0.077,0.373-0.114,0.559l21.516,2.919L42.04,94.754z"/>
			</g>
			<g>
				<path fill="#FFFFFF" d="M163.253,104.678c-0.003-0.036-0.008-0.063-0.013-0.099c-0.111-1.888-0.316-3.762-0.574-5.616
					c-0.032-0.222-0.057-0.443-0.089-0.671c-0.247-1.669-0.58-3.326-0.94-4.974c-0.116-0.52-0.235-1.041-0.36-1.558
					c-0.369-1.516-0.789-3.02-1.254-4.504c-0.184-0.582-0.383-1.155-0.585-1.732c-0.429-1.263-0.888-2.509-1.39-3.746
					c-0.234-0.582-0.477-1.164-0.734-1.744c-0.566-1.302-1.179-2.588-1.825-3.858c-0.234-0.46-0.463-0.924-0.704-1.38
					c-0.795-1.487-1.642-2.951-2.542-4.386c-0.221-0.343-0.445-0.684-0.67-1.025c-0.997-1.537-2.04-3.059-3.159-4.53
					c-1.124-1.473-2.313-2.876-3.533-4.249c-0.267-0.308-0.533-0.621-0.811-0.917c-1.139-1.249-2.324-2.451-3.548-3.615
					c-0.379-0.356-0.761-0.699-1.143-1.049c-1.053-0.958-2.128-1.883-3.226-2.777c-0.498-0.4-1.01-0.795-1.519-1.187
					c-1.046-0.806-2.114-1.567-3.201-2.315c-0.519-0.35-1.022-0.703-1.544-1.044c-1.295-0.834-2.628-1.627-3.973-2.385
					c-0.491-0.271-0.975-0.522-1.465-0.785c-1.477-0.776-2.961-1.525-4.488-2.201c-0.242-0.108-0.486-0.199-0.726-0.302
					c-1.662-0.721-3.35-1.384-5.078-1.98c-0.081-0.033-0.166-0.066-0.24-0.089c-1.834-0.63-3.7-1.175-5.596-1.666
					c-0.497-0.128-0.988-0.262-1.486-0.38l-0.105-0.027c-0.251-0.059-0.501-0.102-0.752-0.157l-2.918,21.513l1.525,0.451
					c0.343,0.097,0.67,0.23,1.008,0.339c0.636,0.193,1.27,0.404,1.906,0.634c0.916,0.33,1.82,0.694,2.706,1.063
					c0.495,0.21,0.991,0.403,1.473,0.628c2.889,1.323,5.628,2.897,8.198,4.705c0.158,0.112,0.308,0.233,0.463,0.345
					c1.144,0.829,2.25,1.706,3.33,2.623c0.248,0.216,0.499,0.438,0.745,0.662c1.018,0.907,1.998,1.849,2.943,2.845
					c0.198,0.202,0.398,0.392,0.594,0.607c1.127,1.218,2.223,2.483,3.245,3.822c1.024,1.342,1.947,2.737,2.83,4.148
					c0.143,0.244,0.28,0.488,0.422,0.731c0.707,1.173,1.36,2.376,1.963,3.592c0.149,0.298,0.293,0.597,0.432,0.894
					c0.605,1.285,1.16,2.586,1.655,3.921c0.062,0.17,0.141,0.339,0.198,0.519c1.069,2.968,1.862,6.027,2.37,9.167
					c0.082,0.509,0.139,1.031,0.207,1.553c0.127,0.964,0.237,1.942,0.307,2.925c0.051,0.666,0.086,1.328,0.107,1.998
					c0.014,0.355,0.049,0.703,0.062,1.058l0.022,1.596l21.523,2.897c0.012-0.237,0.035-0.478,0.046-0.715l0.006-0.373
					c0.017-0.401,0.013-0.806,0.022-1.213C163.407,108.653,163.371,106.657,163.253,104.678z"/>
			</g>
			<g>
				<path fill="#FFFFFF" d="M139.657,123.976c-0.104,0.35-0.235,0.679-0.343,1.018c-0.201,0.635-0.409,1.265-0.63,1.892
					c-0.332,0.92-0.688,1.822-1.064,2.714c-0.21,0.496-0.407,0.99-0.635,1.488c-0.612,1.339-1.277,2.65-1.996,3.93
					c-0.026,0.036-0.045,0.087-0.073,0.128c-0.795,1.398-1.666,2.742-2.588,4.056c-0.175,0.247-0.369,0.491-0.549,0.738
					c-0.749,1.031-1.538,2.025-2.366,2.999c-0.291,0.345-0.592,0.681-0.897,1.023c-0.789,0.874-1.613,1.727-2.473,2.555
					c-0.319,0.319-0.634,0.63-0.965,0.936c-1.182,1.09-2.407,2.143-3.7,3.125l0,0l-0.004,0.01c-1.295,0.974-2.635,1.879-3.997,2.725
					c-0.379,0.242-0.774,0.462-1.162,0.691c-1.018,0.599-2.063,1.17-3.122,1.699c-0.407,0.2-0.816,0.411-1.229,0.601
					c-1.151,0.537-2.323,1.031-3.51,1.475c-0.287,0.108-0.569,0.231-0.857,0.332c-1.513,0.542-3.042,1.031-4.599,1.427
					c-0.046,0.015-0.091,0.018-0.136,0.028c-1.428,0.357-2.879,0.648-4.332,0.884c-0.528,0.09-1.059,0.146-1.588,0.213
					c-0.969,0.129-1.938,0.239-2.916,0.303c-0.662,0.051-1.312,0.09-1.971,0.113c-0.361,0.016-0.722,0.057-1.087,0.057l-1.588,0.026
					l-2.901,21.518c0.189,0.015,0.378,0.028,0.563,0.038l1.063,0.028c0.185,0.005,0.375,0.005,0.558,0.005
					c4.021,0.077,7.977-0.17,11.86-0.715c0.21-0.026,0.415-0.051,0.617-0.077c1.677-0.247,3.338-0.581,4.979-0.946
					c0.532-0.113,1.06-0.234,1.587-0.36c1.504-0.367,2.994-0.781,4.465-1.244c0.598-0.185,1.198-0.406,1.799-0.601
					c1.211-0.419,2.415-0.869,3.609-1.347c0.644-0.26,1.284-0.529,1.924-0.81c1.259-0.552,2.501-1.136,3.727-1.761
					c0.478-0.242,0.968-0.481,1.444-0.74c1.47-0.789,2.924-1.629,4.344-2.519c0.356-0.226,0.704-0.455,1.058-0.686
					c1.524-0.997,3.037-2.028,4.502-3.143c0.007,0,0.01-0.005,0.01-0.005c0.005-0.01,0.009-0.01,0.018-0.016
					c1.461-1.118,2.857-2.298,4.223-3.503c0.312-0.28,0.631-0.552,0.939-0.835c1.238-1.141,2.435-2.313,3.583-3.521
					c0.374-0.391,0.734-0.792,1.101-1.198c0.926-1.018,1.82-2.056,2.687-3.12c0.437-0.545,0.867-1.095,1.29-1.65
					c0.777-1.018,1.528-2.056,2.255-3.11c0.355-0.532,0.717-1.049,1.058-1.578c0.837-1.295,1.637-2.624,2.386-3.971
					c0.267-0.481,0.519-0.954,0.774-1.437c0.789-1.493,1.543-2.992,2.227-4.55c0.086-0.195,0.162-0.385,0.245-0.576
					c1.551-3.598,2.841-7.338,3.826-11.219c0.057-0.208,0.113-0.419,0.166-0.625l0.238-0.964c0.042-0.188,0.077-0.373,0.112-0.553
					l-21.513-2.925L139.657,123.976z"/>
			</g>
			<g>
				<polygon fill="#FFFFFF" points="110.205,107.865 77.999,136.173 66.574,123.17 98.777,94.87 				"/>
			</g>
			<g>
				
					<rect x="48.944" y="83.401" transform="matrix(0.7511 -0.6601 0.6601 0.7511 -41.2927 74.5768)" fill="#FFFFFF" width="58.646" height="17.309"/>
			</g>
			<g>
				<polygon fill="#FFFFFF" points="107.507,142.887 94.193,154.592 82.766,141.591 96.085,129.886 				"/>
			</g>
		</g>
	</g>
	<g>
		<path fill="#FFFFFF" d="M211.38,145.118h-11.224V75.883h39.068v9.566H211.38v21.641h26.093v9.613H211.38V145.118z"/>
		<path fill="#FFFFFF" d="M249.928,78.866c0-1.989,0.545-3.52,1.634-4.594c1.089-1.072,2.644-1.61,4.665-1.61
			c1.957,0,3.481,0.537,4.57,1.61c1.089,1.074,1.634,2.605,1.634,4.594c0,1.894-0.545,3.386-1.634,4.475
			c-1.089,1.089-2.612,1.634-4.57,1.634c-2.021,0-3.576-0.545-4.665-1.634C250.472,82.252,249.928,80.76,249.928,78.866z
			 M261.719,145.118H250.59V92.742h11.129V145.118z"/>
		<path fill="#FFFFFF" d="M320.038,145.118h-11.176v-32.202c0-4.041-0.813-7.056-2.439-9.045c-1.626-1.989-4.207-2.983-7.743-2.983
			c-4.705,0-8.145,1.39-10.323,4.167c-2.179,2.779-3.268,7.435-3.268,13.97v26.093h-11.129V92.742h8.714l1.562,6.867h0.568
			c1.578-2.494,3.82-4.42,6.724-5.778c2.904-1.357,6.125-2.037,9.661-2.037c12.565,0,18.848,6.393,18.848,19.18V145.118z"/>
		<path fill="#FFFFFF" d="M374.475,92.173c0,4.42-1.239,8.035-3.718,10.845c-2.479,2.81-5.99,4.688-10.536,5.635v0.379
			c5.556,0.695,9.676,2.462,12.36,5.304c2.683,2.841,4.025,6.567,4.025,11.176c0,6.599-2.289,11.674-6.867,15.226
			c-4.578,3.552-11.081,5.328-19.511,5.328c-3.663,0-7.017-0.277-10.063-0.829c-3.047-0.552-6.006-1.522-8.879-2.912v-7.482
			c2.999,1.484,6.196,2.613,9.59,3.386c3.393,0.774,6.606,1.16,9.637,1.16c11.965,0,17.948-4.689,17.948-14.065
			c0-8.397-6.599-12.597-19.795-12.597h-6.819v-6.772h6.914c5.399,0,9.676-1.191,12.833-3.576c3.157-2.383,4.736-5.69,4.736-9.921
			c0-3.377-1.16-6.03-3.481-7.956c-2.32-1.925-5.47-2.888-9.448-2.888c-3.031,0-5.889,0.41-8.572,1.231
			c-2.684,0.822-5.747,2.337-9.187,4.546l-3.978-5.304c2.842-2.241,6.116-4.002,9.827-5.28c3.709-1.279,7.616-1.918,11.72-1.918
			c6.724,0,11.949,1.539,15.675,4.618C372.611,82.584,374.475,86.807,374.475,92.173z"/>
		<path fill="#FFFFFF" d="M387.095,115.52c0-13.607,2.644-23.78,7.933-30.522c5.288-6.74,13.109-10.111,23.465-10.111
			c3.567,0,6.377,0.301,8.429,0.9v6.772c-2.431-0.788-5.209-1.184-8.335-1.184c-7.419,0-13.087,2.313-17.001,6.938
			c-3.915,4.626-6.062,11.895-6.441,21.808h0.568c3.473-5.43,8.966-8.145,16.479-8.145c6.219,0,11.121,1.878,14.704,5.635
			c3.583,3.757,5.375,8.855,5.375,15.296c0,7.198-1.965,12.857-5.895,16.977c-3.931,4.12-9.243,6.181-15.936,6.181
			c-7.167,0-12.85-2.691-17.048-8.075C389.194,132.608,387.095,125.118,387.095,115.52z M410.347,139.388
			c4.483,0,7.963-1.413,10.442-4.239c2.478-2.825,3.717-6.906,3.717-12.242c0-4.578-1.153-8.177-3.457-10.798
			c-2.305-2.62-5.747-3.931-10.324-3.931c-2.841,0-5.446,0.585-7.814,1.753c-2.368,1.168-4.255,2.779-5.659,4.83
			c-1.406,2.052-2.108,4.183-2.108,6.393c0,3.253,0.631,6.283,1.894,9.093c1.263,2.81,3.054,5.036,5.375,6.677
			C404.735,138.567,407.379,139.388,410.347,139.388z"/>
		<path fill="#FFFFFF" d="M463.386,102.829c7.293,0,13.03,1.808,17.214,5.422c4.183,3.616,6.274,8.564,6.274,14.847
			c0,7.167-2.281,12.786-6.843,16.858c-4.562,4.073-10.853,6.11-18.872,6.11c-7.798,0-13.75-1.247-17.853-3.741v-7.578
			c2.209,1.421,4.956,2.534,8.24,3.339c3.283,0.805,6.519,1.207,9.708,1.207c5.556,0,9.874-1.31,12.952-3.931
			c3.078-2.62,4.618-6.409,4.618-11.365c0-9.661-5.919-14.491-17.759-14.491c-3,0-7.009,0.458-12.029,1.373l-4.072-2.604
			l2.604-32.392h34.428v7.246h-27.703l-1.753,20.789C456.171,103.192,459.787,102.829,463.386,102.829z"/>
	</g>
</g>
</svg>
