<?xml version="1.0" encoding="utf-8"?>
<!-- Generator: Adobe Illustrator 14.0.0, SVG Export Plug-In . SVG Version: 6.00 Build 43363)  -->
<!DOCTYPE svg PUBLIC "-//W3C//DTD SVG 1.1//EN" "http://www.w3.org/Graphics/SVG/1.1/DTD/svg11.dtd">
<svg version="1.1" id="Capa_1" xmlns="http://www.w3.org/2000/svg" xmlns:xlink="http://www.w3.org/1999/xlink" x="0px" y="0px"
	 width="134.25px" height="68.155px" viewBox="0 0 134.25 68.155" enable-background="new 0 0 134.25 68.155" xml:space="preserve">
<g>
	<path fill="#414141" d="M23.958,37.533V24.897c0-1.834-1.387-3.059-4.039-3.059c-2.61,0-4.081,1.385-4.081,3.059v12.636H12.13
		V24.897c0-1.834-1.385-3.059-4.079-3.059c-2.608,0-4.076,1.385-4.076,3.059v12.636H0.266V19.064h3.258l0.165,1.833
		c1.431-1.545,2.732-2.282,5.626-2.282c2.283,0,4.245,1.226,5.182,2.611c1.262-1.426,3.261-2.611,6.648-2.611
		c3.747,0,6.521,2.53,6.521,5.958v12.96H23.958z"/>
	<path fill="#414141" d="M53.164,26.118h-3.915v11.415h-3.914V11.521h7.828c3.672,0,7.831,2.367,7.831,7.299
		S56.835,26.118,53.164,26.118 M52.471,14.865h-3.222v7.906h3.222c2.324,0,4.483-1.216,4.483-3.951
		C56.954,16.128,54.795,14.865,52.471,14.865"/>
	<path fill="#414141" d="M68.049,37.533c-1.22-0.32-3.667-1.546-3.667-5.093V7.771h3.711v24.18c0,1.712,1.344,2.854,2.482,3.06
		L68.049,37.533z"/>
	<path fill="#414141" d="M86.077,37.533c-1.269-0.282-2.284-1.222-2.69-2.361c-1.308,1.712-3.185,2.361-5.178,2.361
		c-3.678,0-5.959-2.69-5.959-5.665c0-3.586,2.939-5.627,6.074-5.912l4.325-0.405v-1.186c0-1.671-0.98-3.016-3.589-3.016
		c-1.831,0-3.75,0.573-5.098,1.467l-0.735-3.056c1.677-1.104,3.794-1.59,6.038-1.59c4.121,0,7.092,2.322,7.092,6.686v7.464
		c0,1.671,0.9,2.647,2.082,2.854L86.077,37.533z M82.649,28.606l-3.667,0.328C76.78,29.135,75.8,30.562,75.8,31.91
		c0,1.302,1.101,2.488,2.569,2.488c1.956,0,4.28-1.837,4.28-4.162V28.606z"/>
	<path fill="#414141" d="M104.099,37.533V25.671c0-1.919-1.182-3.874-4.28-3.874c-2.977,0-4.45,1.955-4.45,3.874v11.861h-3.707
		V19.064h3.262l0.165,1.833c1.429-1.545,2.815-2.282,5.71-2.282c4.033,0,7.011,2.569,7.011,6.69v12.229H104.099z"/>
	<path fill="#97004A" d="M39.109,36.982c-0.129,0.159-0.207,0.11-1.301,0.459c-1.945,0.617-4.187-1.92-4.601-3.128
		c-0.062-0.251-0.186-1.711-0.38-4.375c-0.128-1.968-0.315-1.131-0.187-2.708c0.128-1.582,0.381-2.776,1.141-6.333
		c0.219-0.158,1.094-1.438,2.14-1.283c1.043,0.157,2.126,2.285,2.186,3.237l-0.613,5.139c-0.192,0.792-0.29,1.505-0.29,2.141
		c0,0.983,0.339,1.925,1.024,2.83c0.679,0.906,1.027,1.768,1.027,2.591C39.256,35.965,39.205,36.442,39.109,36.982"/>
	<path fill="#97004A" d="M39.736,12.389c0.063,0.858-0.145,1.414-0.619,1.669c-0.189,0.092-0.621,0.158-1.282,0.188
		c-1.111,0.096-1.985-0.333-2.62-1.286c-0.411-0.666-0.653-1.347-0.714-2.044c-0.065-0.888-0.094-1.285-0.094-1.191
		c0-0.922,0.87-1.552,2.617-1.904c0.222-0.062,0.431-0.093,0.616-0.093c1.048,0,1.714,0.7,2,2.093
		C39.671,10.677,39.704,11.535,39.736,12.389"/>
	<text transform="matrix(1 0 0 1 0.2637 51.8081)"><tspan x="0" y="0" fill="#606971" font-family="'DennisScript'" font-size="17.8078">pla</tspan><tspan x="19.178" y="0" fill="#606971" font-family="'DennisScript'" font-size="17.8078">n</tspan></text>
	<path fill="none" stroke="#606971" stroke-width="0.688" d="M5.34,49.938c-1.08,0.783-2.095,1.229-3.044,1.336
		c-0.024-1.139-0.036-1.988-0.036-2.546c0-2.03,0.255-3.164,0.765-3.401c0.227-0.107,0.522-0.16,0.891-0.16
		c0.819,0,1.525,0.16,2.12,0.48c0.723,0.392,1.085,0.962,1.085,1.709C7.121,48.223,6.528,49.083,5.34,49.938z M5.679,45.13
		c-1.971-0.321-3.004-0.511-3.099-0.569l-1.478,1.584c-0.284,0.309-0.427,0.718-0.427,1.229c0.215-0.569,0.571-1.063,1.07-1.478
		c0.045,0.19,0.07,0.404,0.07,0.641c0,0.226-0.033,0.564-0.099,1.016c-0.065,0.45-0.096,0.796-0.096,1.032
		c0,0.154,0.014,0.389,0.044,0.704c0.029,0.314,0.044,0.556,0.044,0.722c0,0.938-0.255,1.537-0.766,1.799
		c0.451,0.26,0.678,0.629,0.678,1.104c0-0.107-0.037,0.284-0.107,1.175c-0.024,0.355-0.036,0.771-0.036,1.246
		c0,1.223,0.225,1.923,0.677,2.103c-0.096-1.709-0.143-2.679-0.143-2.903c0-1.627,0.278-2.612,0.837-2.956
		c0.439-0.238,0.772-0.411,0.997-0.517c1.021-0.522,1.711-0.891,2.066-1.104c1.235-0.723,1.853-1.631,1.853-2.723
		C7.763,46.057,7.067,45.355,5.679,45.13z"/>
	<path fill="none" stroke="#606971" stroke-width="0.688" d="M10.415,50.811l-0.053-0.072l-0.516,0.25
		c-0.072-0.071-0.214-1.104-0.427-3.099c-0.204-1.946-0.304-3.14-0.304-3.58c0-0.142,0.01-0.365,0.028-0.667
		c0.017-0.303,0.027-0.532,0.027-0.686c0-0.499-0.06-0.86-0.179-1.086c-0.284,0.676-0.427,1.538-0.427,2.583
		c0,0.451,0.07,1.584,0.215,3.401c0.07,0.926,0.124,1.62,0.16,2.083c0.047,0.606,0.095,0.998,0.141,1.176
		c0.061,0.261,0.146,0.451,0.258,0.569c0.113,0.119,0.266,0.178,0.456,0.178c0.19,0,0.349-0.106,0.481-0.32
		c0.095-0.167,0.141-0.357,0.141-0.571V50.811z"/>
	<path fill="none" stroke="#606971" stroke-width="0.688" d="M15.794,47.445c-0.073,0.19-0.245,0.571-0.517,1.139l-0.143-0.123
		c0,0.625-0.313,1.357-0.943,2.196c-0.653,0.886-1.281,1.329-1.887,1.329c-0.641,0-0.962-0.509-0.962-1.528
		c0-0.948,0.369-2.239,1.104-3.875c0.831-1.847,1.639-2.771,2.422-2.771c0.403,0,0.707,0.309,0.909,0.926
		c0.142,0.451,0.212,0.938,0.212,1.46C15.988,46.637,15.923,47.053,15.794,47.445z M19.053,50.526
		c-0.736,0.617-1.313,0.926-1.729,0.926c-0.404,0-0.718-0.215-0.943-0.642c-0.178-0.344-0.267-0.742-0.267-1.193
		c0-0.355,0.065-0.879,0.197-1.567c0.129-0.688,0.195-1.205,0.195-1.549c0-0.7-0.119-1.318-0.355-1.851
		c-0.285-0.642-0.712-1.075-1.283-1.301c-1.115,0.463-2.078,1.437-2.884,2.921c-0.761,1.376-1.141,2.712-1.141,4.006
		c0,0.569,0.084,1.05,0.251,1.442c0.225,0.546,0.582,0.819,1.067,0.819c0.522,0,1.002-0.213,1.443-0.641
		c0.295-0.286,0.641-0.753,1.033-1.407c0.427-0.712,0.73-1.17,0.907-1.372c0.12,0.926,0.251,1.544,0.393,1.852
		c0.286,0.583,0.801,0.874,1.549,0.874c0.701,0,1.354-0.285,1.96-0.855c0.545-0.535,0.919-1.158,1.122-1.871
		C20.055,49.582,19.551,50.051,19.053,50.526z"/>
	<path fill="none" stroke="#606971" stroke-width="0.688" d="M28.721,50.668c-0.641,0.332-1.086,0.498-1.335,0.498
		c-0.854,0-1.408-0.624-1.656-1.874c-0.048-0.488-0.076-0.868-0.088-1.142c-0.083-1.036-0.142-1.814-0.179-2.338
		c-0.105-1.237-0.406-1.857-0.903-1.857c-0.971,0-2.101,1.858-3.39,5.574c-0.189-0.842-0.283-1.78-0.283-2.814
		c0-0.213,0.047-0.534,0.142-0.961c0.094-0.427,0.142-0.754,0.142-0.98v-0.178c-0.012-0.07-0.018-0.124-0.018-0.16
		c-0.569,0.427-0.855,1.3-0.855,2.618v0.971v0.987c0,1.201,0.113,2.132,0.338,2.797c0.342-0.19,0.68-0.833,1.01-1.929
		c0.567-1.844,0.898-2.884,0.994-3.124c0.484-1.213,1.082-2.041,1.79-2.48c0.153,0.321,0.308,1.184,0.462,2.588
		c0.153,1.536,0.337,2.625,0.549,3.267c0.342,1.059,0.868,1.588,1.579,1.588c0.365,0,0.718-0.083,1.055-0.249
		c0.337-0.167,0.564-0.405,0.681-0.713L28.721,50.668z"/>
	<text transform="matrix(1 0 0 1 27.7051 51.8081)" fill="#606971" font-family="'DennisScript'" font-size="15.7128"> </text>
	<text transform="matrix(1 0 0 1 32.293 51.8081)" fill="#606971" font-family="'DennisScript'" font-size="17.8078">a</text>
	<path fill="none" stroke="#606971" stroke-width="0.688" d="M37.832,47.445c-0.07,0.19-0.243,0.571-0.516,1.139l-0.142-0.123
		c0,0.625-0.314,1.357-0.944,2.196c-0.652,0.886-1.282,1.329-1.887,1.329c-0.641,0-0.962-0.509-0.962-1.528
		c0-0.948,0.368-2.239,1.104-3.875c0.832-1.847,1.639-2.771,2.421-2.771c0.405,0,0.708,0.309,0.909,0.926
		c0.144,0.451,0.215,0.938,0.215,1.46C38.029,46.637,37.964,47.053,37.832,47.445z M41.091,50.526
		c-0.736,0.617-1.312,0.926-1.727,0.926c-0.405,0-0.718-0.215-0.944-0.642c-0.179-0.344-0.268-0.742-0.268-1.193
		c0-0.355,0.065-0.879,0.197-1.567c0.13-0.688,0.196-1.205,0.196-1.549c0-0.7-0.12-1.318-0.357-1.851
		c-0.284-0.642-0.711-1.075-1.283-1.301c-1.115,0.463-2.077,1.437-2.884,2.921c-0.758,1.376-1.139,2.712-1.139,4.006
		c0,0.569,0.083,1.05,0.248,1.442c0.227,0.546,0.582,0.819,1.07,0.819c0.521,0,1.002-0.213,1.442-0.641
		c0.296-0.286,0.641-0.753,1.033-1.407c0.427-0.712,0.73-1.17,0.909-1.372c0.119,0.926,0.248,1.544,0.392,1.852
		c0.284,0.583,0.802,0.874,1.549,0.874c0.7,0,1.354-0.285,1.959-0.855c0.545-0.535,0.919-1.158,1.122-1.871
		C42.094,49.582,41.59,50.051,41.091,50.526z"/>
	<text transform="matrix(1 0 0 1 41.4297 51.8081)" fill="#606971" font-family="'DennisScript'" font-size="15.7128"> </text>
	<text transform="matrix(1 0 0 1 46.0166 51.8081)"><tspan x="0" y="0" fill="#606971" font-family="'DennisScript'" font-size="17.8078">b</tspan><tspan x="7.39" y="0" fill="#606971" font-family="'DennisScript'" font-size="17.8078">e</tspan><tspan x="14.905" y="0" fill="#606971" font-family="'DennisScript'" font-size="17.8078">tte</tspan><tspan x="35.294" y="0" fill="#606971" font-family="'DennisScript'" font-size="17.8078">r</tspan></text>
	<path fill="none" stroke="#606971" stroke-width="0.688" d="M53.283,45.664c-0.238-0.309-0.553-0.463-0.944-0.463
		c-0.63,0-1.234,0.315-1.815,0.944c-0.357,0.392-0.813,1.054-1.372,1.985c-0.559,0.933-0.975,1.535-1.247,1.808
		c-0.061-0.26-0.089-0.593-0.089-0.997c0-0.843,0.023-2.104,0.073-3.784c0.044-1.681,0.07-2.941,0.07-3.785
		c0-0.569-0.167-0.938-0.499-1.103c-0.095,0.047-0.161,0.159-0.197,0.338c-0.023,0.107-0.035,0.392-0.035,0.855
		c0,0.653-0.018,1.496-0.054,2.528c-0.036,1.365-0.058,2.215-0.072,2.546c-0.022,1.199-0.035,2.208-0.035,3.027
		c0,0.891,0.142,1.638,0.427,2.244c0.333-0.143,0.754-0.754,1.266-1.834c0.735-1.531,1.222-2.475,1.459-2.831
		c0.641-0.987,1.289-1.479,1.941-1.479c0.309,0,0.539,0.167,0.695,0.499c0.119,0.25,0.179,0.546,0.179,0.89
		c0,0.832-0.382,1.817-1.142,2.956c-0.819,1.223-1.614,1.835-2.386,1.835c-0.285,0-0.541-0.102-0.765-0.303
		c-0.036,0.213-0.055,0.332-0.055,0.356c0,0.012,0.019,0.16,0.055,0.445c1.377,0,2.546-0.611,3.507-1.833
		c0.891-1.128,1.336-2.404,1.336-3.829C53.585,46.276,53.485,45.938,53.283,45.664z"/>
	<path fill="none" stroke="#606971" stroke-width="0.688" d="M58.085,47.562c-0.655,0.658-1.36,1.047-2.113,1.166
		c-0.035-0.213-0.052-0.327-0.052-0.339c0-0.356,0.178-0.854,0.536-1.496c0.418-0.736,0.687-1.181,0.807-1.335
		c0.381-0.486,0.806-0.729,1.271-0.729c0.358,0,0.537,0.22,0.537,0.659C59.07,46.211,58.741,46.901,58.085,47.562z M59.588,50.383
		c-1.129,0.725-2.05,1.087-2.761,1.087c-0.344,0-0.67-0.114-0.979-0.339c-0.345-0.25-0.518-0.534-0.518-0.854
		c0-0.357,0.315-0.713,0.945-1.068c0.463-0.237,0.932-0.475,1.405-0.713c0.381-0.25,0.772-0.738,1.177-1.469
		c0.403-0.729,0.604-1.316,0.604-1.754c0-0.559-0.349-0.837-1.049-0.837c-0.748,0-1.466,0.57-2.156,1.709
		c-0.225,0.38-0.641,1.282-1.245,2.708c-0.131-0.132-0.231-0.273-0.303-0.427c0.131-0.287,0.231-0.499,0.303-0.643
		c-0.19,0.12-0.38,0.233-0.571,0.338c-0.226,0.155-0.374,0.322-0.445,0.499c0.047,0.144,0.188,0.33,0.418,0.562
		c0.233,0.232,0.359,0.39,0.383,0.473c0.143,0.688,0.237,1.217,0.285,1.584c0.131,0.488,0.67,0.73,1.62,0.73
		c1.021,0,2.064-0.332,3.127-0.998c1.061-0.663,1.813-1.46,2.251-2.386C60.679,49.618,59.849,50.217,59.588,50.383z"/>
	<path fill="none" stroke="#606971" stroke-width="0.688" d="M66.958,45.807c-0.283,0-1.217,0.255-2.796,0.765
		c-0.058-0.226-0.088-0.498-0.088-0.819c0-0.333,0.154-1.217,0.463-2.654c0.131-0.605,0.197-1.133,0.197-1.584
		c0-0.44-0.055-0.815-0.163-1.124c-0.628,1.414-0.943,3.207-0.943,5.379c0,0.296-0.092,0.566-0.276,0.81
		c-0.184,0.244-0.537,0.519-1.06,0.828c-0.284,0.167-0.706,0.38-1.263,0.641c0.212,0.036,0.337,0.054,0.373,0.054
		c0.262,0,0.588-0.077,0.979-0.231c0.63-0.237,0.951-0.356,0.963-0.356c0,1.21,0.084,2.125,0.248,2.741
		c0.309,1.117,0.909,1.676,1.799,1.676c0.534,0,0.975-0.327,1.318-0.981c0.296-0.545,0.445-1.109,0.445-1.69
		c-0.724,1.412-1.336,2.119-1.833,2.119c-0.524,0-0.916-0.404-1.176-1.211c-0.178-0.557-0.267-1.175-0.267-1.852
		c0-0.736,0.445-1.259,1.336-1.567c0.926-0.202,1.703-0.351,2.333-0.444C67.464,45.973,67.267,45.807,66.958,45.807z"/>
	<path fill="none" stroke="#606971" stroke-width="0.688" d="M73.37,45.807c-0.287,0-1.217,0.255-2.797,0.765
		c-0.058-0.226-0.087-0.498-0.087-0.819c0-0.333,0.153-1.217,0.462-2.654c0.13-0.605,0.196-1.133,0.196-1.584
		c0-0.44-0.054-0.815-0.16-1.124c-0.63,1.414-0.943,3.207-0.943,5.379c0,0.296-0.092,0.566-0.276,0.81
		c-0.185,0.244-0.538,0.519-1.06,0.828c-0.286,0.167-0.707,0.38-1.265,0.641c0.215,0.036,0.339,0.054,0.375,0.054
		c0.259,0,0.587-0.077,0.979-0.231c0.63-0.237,0.95-0.356,0.961-0.356c0,1.21,0.083,2.125,0.25,2.741
		c0.309,1.117,0.908,1.676,1.799,1.676c0.534,0,0.972-0.327,1.316-0.981c0.297-0.545,0.445-1.109,0.445-1.69
		c-0.724,1.412-1.336,2.119-1.833,2.119c-0.524,0-0.916-0.404-1.176-1.211c-0.178-0.557-0.267-1.175-0.267-1.852
		c0-0.736,0.445-1.259,1.336-1.567c0.926-0.202,1.704-0.351,2.332-0.444C73.874,45.973,73.679,45.807,73.37,45.807z"/>
	<path fill="none" stroke="#606971" stroke-width="0.688" d="M78.42,47.562c-0.656,0.658-1.36,1.047-2.112,1.166
		c-0.036-0.213-0.054-0.327-0.054-0.339c0-0.356,0.179-0.854,0.537-1.496c0.417-0.736,0.687-1.181,0.806-1.335
		c0.382-0.486,0.805-0.729,1.273-0.729c0.358,0,0.536,0.22,0.536,0.659C79.406,46.211,79.078,46.901,78.42,47.562z M79.923,50.383
		c-1.129,0.725-2.047,1.087-2.76,1.087c-0.345,0-0.671-0.114-0.98-0.339c-0.344-0.25-0.516-0.534-0.516-0.854
		c0-0.357,0.314-0.713,0.943-1.068c0.463-0.237,0.932-0.475,1.407-0.713c0.38-0.25,0.771-0.738,1.175-1.469
		c0.404-0.729,0.606-1.316,0.606-1.754c0-0.559-0.352-0.837-1.052-0.837c-0.748,0-1.466,0.57-2.154,1.709
		c-0.226,0.38-0.641,1.282-1.248,2.708c-0.132-0.132-0.231-0.273-0.302-0.427c0.13-0.287,0.23-0.499,0.302-0.643
		c-0.19,0.12-0.38,0.233-0.569,0.338c-0.225,0.155-0.375,0.322-0.445,0.499c0.048,0.144,0.187,0.33,0.417,0.562
		c0.233,0.232,0.36,0.39,0.385,0.473c0.141,0.688,0.237,1.217,0.284,1.584c0.13,0.488,0.671,0.73,1.62,0.73
		c1.021,0,2.063-0.332,3.126-0.998c1.062-0.663,1.813-1.46,2.252-2.386C81.015,49.618,80.184,50.217,79.923,50.383z"/>
	<path fill="none" stroke="#606971" stroke-width="0.688" d="M86.716,45.308c-0.137-0.261-0.253-0.392-0.347-0.392
		c-0.513,0-1.147,0.386-1.908,1.158c-0.56,0.569-1.046,1.187-1.463,1.853c-0.231-0.917-0.406-1.599-0.521-2.051
		c-0.049-0.166-0.172-0.349-0.37-0.552c-0.197-0.201-0.308-0.368-0.333-0.498v0.196c-0.011,0.095-0.017,0.167-0.017,0.214
		c0-0.06,0.167,0.642,0.498,2.101c0.249,1.093,0.375,1.74,0.375,1.941v0.58v0.578c0,1.092,0.212,1.686,0.641,1.781l0.159-3.009
		c0.06-1.045,0.387-1.889,0.981-2.529c0.509-0.558,1.007-0.837,1.495-0.837c0.012,0,0.357,0.018,1.033,0.053
		C86.927,45.766,86.853,45.57,86.716,45.308z"/>
	<text transform="matrix(1 0 0 1 86.582 51.8081)" fill="#606971" font-family="'DennisScript'" font-size="15.7128"> </text>
	<text transform="matrix(1 0 0 1 91.1699 51.8081)"><tspan x="0" y="0" fill="#606971" font-family="'DennisScript'" font-size="17.8078">futur</tspan><tspan x="34.101" y="0" fill="#606971" font-family="'DennisScript'" font-size="17.8078">e</tspan></text>
	<path fill="none" stroke="#606971" stroke-width="0.688" d="M99.469,40.339c-0.416-0.605-0.908-0.908-1.479-0.908
		c-1.257,0-2.22,0.772-2.884,2.315c-0.393,0.926-0.693,2.244-0.908,3.954c-0.225,1.817-0.361,2.766-0.41,2.85
		c-0.119,0.225-0.463,0.413-1.033,0.561c-0.569,0.149-0.921,0.378-1.05,0.687c0.95-0.191,1.496-0.287,1.638-0.287
		c0.06,0.012,0.179,0.048,0.357,0.107c0.142,0.392,0.238,0.695,0.285,0.909c0.226,0.808,0.392,1.418,0.498,1.833
		c0.357,1.306,0.749,2.06,1.176,2.261c0.07-0.261,0.105-0.463,0.105-0.604c0-0.144-0.284-0.957-0.854-2.44
		c-0.261-0.677-0.392-1.194-0.392-1.549c0-0.653,0.64-1.08,1.923-1.282c1.222-0.143,2.137-0.237,2.742-0.284l-0.035-0.036
		c-0.203-0.179-0.333-0.287-0.393-0.321c-0.119-0.059-0.29-0.088-0.516-0.088c-0.642,0-1.869,0.189-3.686,0.568
		c-0.107-0.534-0.16-1.074-0.16-1.62c0-1.246,0.309-2.659,0.924-4.238c0.761-1.935,1.652-2.902,2.671-2.902
		c0.488,0,0.933,0.385,1.336,1.157c0.357,0.677,0.535,1.289,0.535,1.835c0.119-0.19,0.178-0.445,0.178-0.766
		C100.039,41.444,99.85,40.873,99.469,40.339z"/>
	<path fill="none" stroke="#606971" stroke-width="0.688" d="M105.187,50.117c-0.463-0.393-0.696-1.027-0.696-1.905
		c0-0.19,0.013-0.469,0.036-0.838c0.024-0.367,0.035-0.641,0.035-0.819c0-0.273-0.017-0.535-0.053-0.783l-1.646,3.9
		c-0.537,1.259-1.098,1.888-1.682,1.888c-0.464,0-0.698-0.564-0.698-1.692c0-0.487,0.243-1.621,0.726-3.402
		c0.216-0.794,0.327-1.471,0.327-2.029c-0.489,0.215-0.867,1.092-1.141,2.636c-0.201,1.128-0.302,2.178-0.302,3.152
		c0,0.439,0.082,0.854,0.249,1.247c0.215,0.498,0.506,0.748,0.874,0.748c0.474,0,1.008-0.47,1.603-1.407
		c0.498-0.748,0.836-1.442,1.015-2.083c0.166,0.593,0.456,1.135,0.873,1.62c0.486,0.583,0.99,0.873,1.514,0.873
		c0.259,0,0.556-0.112,0.89-0.338C106.171,50.668,105.53,50.412,105.187,50.117z"/>
	<path fill="none" stroke="#606971" stroke-width="0.688" d="M112.379,45.807c-0.285,0-1.217,0.255-2.794,0.765
		c-0.06-0.226-0.09-0.498-0.09-0.819c0-0.333,0.155-1.217,0.463-2.654c0.13-0.605,0.195-1.133,0.195-1.584
		c0-0.44-0.054-0.815-0.159-1.124c-0.63,1.414-0.944,3.207-0.944,5.379c0,0.296-0.093,0.566-0.275,0.81
		c-0.186,0.244-0.54,0.519-1.061,0.828c-0.286,0.167-0.707,0.38-1.266,0.641c0.216,0.036,0.339,0.054,0.375,0.054
		c0.261,0,0.587-0.077,0.979-0.231c0.63-0.237,0.951-0.356,0.962-0.356c0,1.21,0.083,2.125,0.25,2.741
		c0.309,1.117,0.909,1.676,1.799,1.676c0.535,0,0.972-0.327,1.316-0.981c0.298-0.545,0.445-1.109,0.445-1.69
		c-0.724,1.412-1.335,2.119-1.834,2.119c-0.521,0-0.913-0.404-1.174-1.211c-0.18-0.557-0.269-1.175-0.269-1.852
		c0-0.736,0.445-1.259,1.336-1.567c0.926-0.202,1.705-0.351,2.333-0.444C112.884,45.973,112.688,45.807,112.379,45.807z"/>
	<path fill="none" stroke="#606971" stroke-width="0.688" d="M118.701,50.117c-0.463-0.393-0.694-1.027-0.694-1.905
		c0-0.19,0.012-0.469,0.036-0.838c0.023-0.367,0.036-0.641,0.036-0.819c0-0.273-0.019-0.535-0.054-0.783l-1.646,3.9
		c-0.536,1.259-1.098,1.888-1.682,1.888c-0.465,0-0.698-0.564-0.698-1.692c0-0.487,0.243-1.621,0.726-3.402
		c0.217-0.794,0.326-1.471,0.326-2.029c-0.487,0.215-0.867,1.092-1.14,2.636c-0.201,1.128-0.302,2.178-0.302,3.152
		c0,0.439,0.082,0.854,0.25,1.247c0.214,0.498,0.505,0.748,0.873,0.748c0.474,0,1.008-0.47,1.603-1.407
		c0.497-0.748,0.836-1.442,1.015-2.083c0.165,0.593,0.456,1.135,0.871,1.62c0.488,0.583,0.991,0.873,1.515,0.873
		c0.262,0,0.557-0.112,0.891-0.338C119.687,50.668,119.046,50.412,118.701,50.117z"/>
	<path fill="none" stroke="#606971" stroke-width="0.688" d="M125.317,45.308c-0.138-0.261-0.254-0.392-0.348-0.392
		c-0.511,0-1.146,0.386-1.907,1.158c-0.56,0.569-1.045,1.187-1.462,1.853c-0.231-0.917-0.406-1.599-0.522-2.051
		c-0.049-0.166-0.171-0.349-0.368-0.552c-0.198-0.201-0.309-0.368-0.334-0.498v0.196c-0.011,0.095-0.017,0.167-0.017,0.214
		c0-0.06,0.166,0.642,0.498,2.101c0.25,1.093,0.375,1.74,0.375,1.941v0.58v0.578c0,1.092,0.213,1.686,0.641,1.781l0.16-3.009
		c0.06-1.045,0.386-1.889,0.98-2.529c0.51-0.558,1.009-0.837,1.496-0.837c0.01,0,0.356,0.018,1.031,0.053
		C125.527,45.766,125.453,45.57,125.317,45.308z"/>
	<path fill="none" stroke="#606971" stroke-width="0.688" d="M129.878,47.562c-0.655,0.658-1.36,1.047-2.113,1.166
		c-0.035-0.213-0.053-0.327-0.053-0.339c0-0.356,0.178-0.854,0.536-1.496c0.418-0.736,0.687-1.181,0.807-1.335
		c0.381-0.486,0.807-0.729,1.272-0.729c0.358,0,0.536,0.22,0.536,0.659C130.863,46.211,130.535,46.901,129.878,47.562z
		 M131.381,50.383c-1.129,0.725-2.049,1.087-2.761,1.087c-0.344,0-0.669-0.114-0.979-0.339c-0.345-0.25-0.518-0.534-0.518-0.854
		c0-0.357,0.315-0.713,0.945-1.068c0.463-0.237,0.931-0.475,1.408-0.713c0.379-0.25,0.772-0.738,1.174-1.469
		c0.403-0.729,0.605-1.316,0.605-1.754c0-0.559-0.35-0.837-1.051-0.837c-0.747,0-1.468,0.57-2.156,1.709
		c-0.225,0.38-0.64,1.282-1.245,2.708c-0.131-0.132-0.231-0.273-0.303-0.427c0.131-0.287,0.231-0.499,0.303-0.643
		c-0.19,0.12-0.38,0.233-0.569,0.338c-0.227,0.155-0.374,0.322-0.445,0.499c0.046,0.144,0.187,0.33,0.417,0.562
		c0.233,0.232,0.359,0.39,0.383,0.473c0.143,0.688,0.238,1.217,0.285,1.584c0.131,0.488,0.671,0.73,1.62,0.73
		c1.022,0,2.064-0.332,3.127-0.998c1.061-0.663,1.813-1.46,2.251-2.386C132.473,49.618,131.641,50.217,131.381,50.383z"/>
	<polygon fill="#97004A" points="116.787,39.437 113.568,36.844 119.509,28.906 113.362,21.882 116.434,18.825 124.554,28.906 	"/>
	<polygon fill="#97004A" points="127.292,38.215 124.376,35.716 129.042,29.579 124.376,23.495 127.292,20.939 133.986,29.579 	"/>
</g>
</svg>
