<?xml version="1.0" encoding="utf-8"?>
<!-- Generator: Adobe Illustrator 14.0.0, SVG Export Plug-In  -->
<!DOCTYPE svg PUBLIC "-//W3C//DTD SVG 1.1//EN" "http://www.w3.org/Graphics/SVG/1.1/DTD/svg11.dtd" [
	<!ENTITY ns_flows "http://ns.adobe.com/Flows/1.0/">
]>
<svg version="1.1"
	 xmlns="http://www.w3.org/2000/svg" xmlns:xlink="http://www.w3.org/1999/xlink" xmlns:a="http://ns.adobe.com/AdobeSVGViewerExtensions/3.0/"
	 x="0px" y="0px" width="15px" height="16px" viewBox="-0.604 -1.104 15 16" enable-background="new -0.604 -1.104 15 16"
	 xml:space="preserve">
<defs>
</defs>
<path fill="#424242" d="M4.394,3.14C3.701,3.14,3.14,3.7,3.14,4.394c0,0.691,0.562,1.254,1.254,1.254
	c0.691,0,1.253-0.563,1.253-1.254C5.646,3.7,5.085,3.14,4.394,3.14 M4.394,5.019c-0.346,0-0.627-0.279-0.627-0.625
	c0-0.348,0.281-0.627,0.627-0.627S5.02,4.046,5.02,4.394C5.02,4.739,4.739,5.019,4.394,5.019 M13.701,10.751L9.372,6.413
	l0.291-0.291c0.489-0.49,0.489-1.283,0-1.771L5.679,0.366c-0.488-0.488-1.281-0.488-1.771,0L0.367,3.907
	c-0.489,0.49-0.489,1.281,0,1.771l3.983,3.984c0.489,0.488,1.282,0.488,1.771,0l0.3-0.301l1.823,1.832
	c0.057,0.057,0.135,0.092,0.222,0.092h0.939v0.939c0,0.174,0.141,0.314,0.313,0.314h0.94v0.939c0,0.174,0.14,0.313,0.313,0.313
	h2.507c0.173,0,0.313-0.139,0.313-0.313v-2.508C13.793,10.886,13.758,10.808,13.701,10.751 M13.166,13.165h-1.88v-0.939
	c0-0.172-0.14-0.313-0.313-0.313h-0.939v-0.941c0-0.172-0.141-0.313-0.313-0.313H8.597L6.642,8.694
	C6.585,8.638,6.507,8.603,6.42,8.603c-0.094,0-0.176,0.043-0.233,0.109L5.679,9.22c-0.244,0.244-0.641,0.244-0.885,0L0.81,5.235
	c-0.244-0.244-0.244-0.641,0-0.885L4.351,0.81c0.245-0.246,0.642-0.246,0.886,0l3.984,3.984c0.244,0.244,0.244,0.641,0,0.885
	L8.723,6.177C8.657,6.233,8.613,6.315,8.613,6.409c0,0.088,0.035,0.166,0.092,0.223l4.461,4.471V13.165z"/>
</svg>
